<?xml version="1.0" encoding="iso-8859-1"?>
<!-- Generator: Adobe Illustrator 19.0.0, SVG Export Plug-In . SVG Version: 6.00 Build 0)  -->
<svg version="1.1" id="Layer_1" xmlns="http://www.w3.org/2000/svg" xmlns:xlink="http://www.w3.org/1999/xlink" x="0px" y="0px"
	 viewBox="0 0 463 463" style="enable-background:new 0 0 463 463;" xml:space="preserve">
<g transform="translate(0 -540.36)">
	<g>
		<g>
			<path d="M359.5,697.26L359.5,697.26l-18.1,0v-17.4c0-24.3-9.7-46.9-27.4-63.8c-17.5-16.7-40.9-25.9-65.8-25.9h-21.4l-3.2-29.4
				l-0.1-0.5c-1.9-11-12.7-19.9-24-19.9h-62.7v15h62.7c4,0,8.4,3.5,9.2,7.3l3,27.5c-50.7,1-90.1,40-90.1,89.6v17.4h-18.1
				c-4.1,0-7.5,3.4-7.5,7.5v42.3c0,4.1,3.4,7.5,7.5,7.5h18.8l21.1,213.5c0,0.1,0,0.3,0.1,0.4c3.1,19.6,20.4,35,39.4,35h96
				c20.5,0,37.8-15.6,39.5-35.4l22.3-213.5h18.8c4.1,0,7.5-3.4,7.5-7.5v-42.3C367,700.66,363.6,697.26,359.5,697.26z M248.1,605.26
				c43.9,0,78.3,32.8,78.3,74.6v17.4h-88.2l-9.9-92H248.1z M136.6,679.86c0-41.8,33.7-74.5,76.7-74.6l9.9,92h-86.6V679.86z
				 M303.4,966.56c0,0.1,0,0.1,0,0.2c-1,12.2-11.7,21.7-24.5,21.7h-96c-11.7,0-22.5-9.7-24.6-22.1l-2.1-21.4h149.5L303.4,966.56z
				 M307.2,929.96L307.2,929.96H154.7L143,811.76h176.6L307.2,929.96z M321.2,796.86H141.6l-4.2-42.2h188.2L321.2,796.86z
				 M352,739.56L352,739.56H111v-27.3h18.1h204.8H352V739.56z"/>
			<path d="M231.5,920.06c20.7,0,36.9-19.7,36.9-44.8c0-25.2-16.2-44.8-36.9-44.8s-36.9,19.7-36.9,44.8S210.8,920.06,231.5,920.06z
				 M231.5,845.36c12.3,0,21.9,13.1,21.9,29.8c0,14.2-6.8,25.7-16.3,29c3.1-7.9,6.6-19.1,5.7-27.2c-1-10-9.4-23.3-14.8-31.2
				C229.2,845.56,230.3,845.36,231.5,845.36z M215.7,854.46c5.5,7.8,11.6,18.2,12.2,24.2c0.6,5.1-2.8,15.5-6.1,23.5
				c-7.3-4.9-12.2-15-12.2-26.9C209.6,867.06,211.9,859.76,215.7,854.46z"/>
		</g>
	</g>
</g>
<g>
</g>
<g>
</g>
<g>
</g>
<g>
</g>
<g>
</g>
<g>
</g>
<g>
</g>
<g>
</g>
<g>
</g>
<g>
</g>
<g>
</g>
<g>
</g>
<g>
</g>
<g>
</g>
<g>
</g>
</svg>
