<svg width="200" height="200" viewBox="0 0 200 200" fill="none" xmlns="http://www.w3.org/2000/svg">
<path d="M45.2607 136.643C45.2607 136.145 45.085 135.764 44.7334 135.5C44.3818 135.23 43.749 134.949 42.835 134.656C41.9209 134.357 41.1973 134.064 40.6641 133.777C39.2109 132.992 38.4844 131.935 38.4844 130.604C38.4844 129.913 38.6777 129.298 39.0645 128.759C39.457 128.214 40.0166 127.789 40.7432 127.484C41.4756 127.18 42.2959 127.027 43.2041 127.027C44.1182 127.027 44.9326 127.194 45.6475 127.528C46.3623 127.856 46.916 128.322 47.3086 128.926C47.707 129.529 47.9062 130.215 47.9062 130.982H45.2695C45.2695 130.396 45.085 129.942 44.7158 129.62C44.3467 129.292 43.8281 129.128 43.1602 129.128C42.5156 129.128 42.0146 129.266 41.6572 129.541C41.2998 129.811 41.1211 130.168 41.1211 130.613C41.1211 131.029 41.3291 131.378 41.7451 131.659C42.167 131.94 42.7852 132.204 43.5996 132.45C45.0996 132.901 46.1924 133.461 46.8779 134.129C47.5635 134.797 47.9062 135.629 47.9062 136.625C47.9062 137.732 47.4873 138.603 46.6494 139.235C45.8115 139.862 44.6836 140.176 43.2656 140.176C42.2812 140.176 41.3848 139.997 40.5762 139.64C39.7676 139.276 39.1494 138.781 38.7217 138.154C38.2998 137.527 38.0889 136.801 38.0889 135.975H40.7344C40.7344 137.387 41.5781 138.093 43.2656 138.093C43.8926 138.093 44.3818 137.967 44.7334 137.715C45.085 137.457 45.2607 137.1 45.2607 136.643ZM60.1143 140H57.4775V134.516H52.3359V140H49.6992V127.203H52.3359V132.389H57.4775V127.203H60.1143V140ZM72.9375 133.892C72.9375 135.151 72.7148 136.256 72.2695 137.205C71.8242 138.154 71.1855 138.887 70.3535 139.402C69.5273 139.918 68.5781 140.176 67.5059 140.176C66.4453 140.176 65.499 139.921 64.667 139.411C63.835 138.901 63.1904 138.175 62.7334 137.231C62.2764 136.282 62.0449 135.192 62.0391 133.962V133.329C62.0391 132.069 62.2646 130.962 62.7158 130.007C63.1729 129.046 63.8145 128.311 64.6406 127.801C65.4727 127.285 66.4219 127.027 67.4883 127.027C68.5547 127.027 69.501 127.285 70.3271 127.801C71.1592 128.311 71.8008 129.046 72.252 130.007C72.709 130.962 72.9375 132.066 72.9375 133.32V133.892ZM70.2656 133.312C70.2656 131.97 70.0254 130.95 69.5449 130.253C69.0645 129.556 68.3789 129.207 67.4883 129.207C66.6035 129.207 65.9209 129.553 65.4404 130.244C64.96 130.93 64.7168 131.938 64.7109 133.268V133.892C64.7109 135.198 64.9512 136.212 65.4316 136.933C65.9121 137.653 66.6035 138.014 67.5059 138.014C68.3906 138.014 69.0703 137.668 69.5449 136.977C70.0195 136.279 70.2598 135.266 70.2656 133.936V133.312ZM77.4902 135.491V140H74.8535V127.203H79.8457C80.8066 127.203 81.6504 127.379 82.377 127.73C83.1094 128.082 83.6719 128.583 84.0645 129.233C84.457 129.878 84.6533 130.613 84.6533 131.439C84.6533 132.693 84.2227 133.684 83.3613 134.41C82.5059 135.131 81.3193 135.491 79.8018 135.491H77.4902ZM77.4902 133.355H79.8457C80.543 133.355 81.0732 133.191 81.4365 132.863C81.8057 132.535 81.9902 132.066 81.9902 131.457C81.9902 130.83 81.8057 130.323 81.4365 129.937C81.0674 129.55 80.5576 129.351 79.9072 129.339H77.4902V133.355Z" fill="#D3AD7F"/>
<circle cx="100" cy="100" r="95" stroke="#D3AD7F" stroke-width="10"/>
<circle cx="100" cy="100" r="83.5" stroke="#D3AD7F" stroke-width="3"/>
<path d="M56.556 118.26C52.4307 118.26 48.8427 117.515 45.792 116.024C42.7413 114.499 40.4013 112.349 38.772 109.576C37.1427 106.803 36.328 103.579 36.328 99.904C36.328 94.808 37.2813 90.284 39.188 86.332C41.1293 82.38 43.7467 79.3293 47.04 77.18C50.3333 74.996 53.9907 73.904 58.012 73.904C61.756 73.904 64.5987 74.8747 66.54 76.816C68.4813 78.7227 69.452 81.2533 69.452 84.408C69.452 86.5227 69.0707 88.2213 68.308 89.504C67.58 90.7867 66.5227 91.428 65.136 91.428C64.1653 91.428 63.4027 91.2027 62.848 90.752C62.2933 90.3013 62.016 89.6427 62.016 88.776C62.016 88.464 62.0853 87.892 62.224 87.06C62.432 86.02 62.536 85.188 62.536 84.564C62.536 81.4093 60.8547 79.832 57.492 79.832C55.204 79.832 53.02 80.5773 50.94 82.068C48.86 83.5587 47.1787 85.76 45.896 88.672C44.6133 91.5493 43.972 94.9813 43.972 98.968C43.972 103.128 45.1333 106.352 47.456 108.64C49.7787 110.893 53.2107 112.02 57.752 112.02C60.0053 112.02 62.276 111.743 64.564 111.188C66.8867 110.599 69.452 109.715 72.26 108.536C72.78 108.328 73.2133 108.224 73.56 108.224C74.1147 108.224 74.5307 108.432 74.808 108.848C75.0853 109.264 75.224 109.801 75.224 110.46C75.224 112.575 74.08 114.135 71.792 115.14C69.3307 116.215 66.7653 117.012 64.096 117.532C61.4613 118.017 58.948 118.26 56.556 118.26ZM97.1566 102.036C97.6073 102.036 97.954 102.261 98.1966 102.712C98.4393 103.163 98.5606 103.735 98.5606 104.428C98.5606 106.092 98.058 107.08 97.0526 107.392C94.9726 108.12 92.6846 108.536 90.1886 108.64C89.53 111.552 88.23 113.892 86.2886 115.66C84.3473 117.393 82.146 118.26 79.6846 118.26C77.6046 118.26 75.8193 117.757 74.3286 116.752C72.8726 115.747 71.7633 114.412 71.0006 112.748C70.238 111.084 69.8566 109.281 69.8566 107.34C69.8566 104.705 70.3593 102.365 71.3646 100.32C72.37 98.24 73.7566 96.628 75.5246 95.484C77.2926 94.3053 79.2513 93.716 81.4006 93.716C84.0353 93.716 86.15 94.6347 87.7446 96.472C89.374 98.2747 90.3273 100.511 90.6046 103.18C92.234 103.076 94.1753 102.729 96.4286 102.14C96.706 102.071 96.9486 102.036 97.1566 102.036ZM80.1006 112.748C81.21 112.748 82.1633 112.297 82.9606 111.396C83.7926 110.495 84.3473 109.195 84.6246 107.496C83.55 106.768 82.718 105.815 82.1286 104.636C81.574 103.457 81.2966 102.209 81.2966 100.892C81.2966 100.337 81.3486 99.7827 81.4526 99.228H81.1926C79.806 99.228 78.6446 99.904 77.7086 101.256C76.8073 102.573 76.3566 104.445 76.3566 106.872C76.3566 108.779 76.7206 110.235 77.4486 111.24C78.2113 112.245 79.0953 112.748 80.1006 112.748ZM131.122 103.44C132.092 103.44 132.578 104.168 132.578 105.624C132.578 108.397 130.359 109.784 125.922 109.784C125.748 109.784 124.778 109.732 123.01 109.628C123.391 111.465 123.686 113.563 123.894 115.92C124.136 118.243 124.258 120.565 124.258 122.888C124.258 126.632 123.616 129.492 122.334 131.468C121.086 133.444 119.474 134.432 117.498 134.432C115.002 134.432 113.216 132.664 112.142 129.128C111.102 125.592 110.582 120.253 110.582 113.112C110.582 111.275 110.634 109.42 110.738 107.548C110.426 107.583 109.923 107.6 109.23 107.6C108.294 107.6 107.531 107.617 106.942 107.652C107.288 110.217 107.548 112.679 107.722 115.036C107.93 117.393 108.034 120.011 108.034 122.888C108.034 126.632 107.392 129.492 106.11 131.468C104.862 133.444 103.25 134.432 101.274 134.432C98.7776 134.432 96.9922 132.664 95.9176 129.128C94.8776 125.592 94.3576 120.253 94.3576 113.112C94.3576 106.421 95.0162 99.6613 96.3336 92.832C97.6856 85.968 99.5576 80.3 101.95 75.828C104.342 71.356 107.046 69.12 110.062 69.12C111.622 69.12 112.835 69.7787 113.702 71.096C114.603 72.3787 115.054 74.2333 115.054 76.66C115.054 80.4387 114.031 84.6507 111.986 89.296C109.975 93.9067 106.404 98.76 101.274 103.856C100.962 106.907 100.806 109.871 100.806 112.748C100.806 116.319 100.927 119.976 101.17 123.72C101.412 127.499 101.811 129.388 102.366 129.388C102.886 129.388 103.302 128.955 103.614 128.088C103.926 127.221 104.082 125.852 104.082 123.98C104.082 120.583 103.943 117.584 103.666 114.984C103.423 112.349 103.128 110.235 102.782 108.64C102.712 108.397 102.678 108.033 102.678 107.548C102.678 106.057 103.267 104.827 104.446 103.856C105.659 102.885 107.254 102.383 109.23 102.348H110.478H111.206C111.864 96.5933 112.939 91.1853 114.43 86.124C115.955 81.028 117.792 76.92 119.942 73.8C122.126 70.68 124.466 69.12 126.962 69.12C128.591 69.12 129.856 69.848 130.758 71.304C131.694 72.76 132.162 74.7187 132.162 77.18C132.162 80.2307 131.59 83.6453 130.446 87.424C129.302 91.2027 127.603 94.756 125.35 98.084C123.131 101.377 120.479 103.856 117.394 105.52C117.151 107.843 117.03 110.252 117.03 112.748C117.03 116.319 117.151 119.976 117.394 123.72C117.636 127.499 118.035 129.388 118.59 129.388C119.11 129.388 119.526 128.955 119.838 128.088C120.15 127.221 120.306 125.852 120.306 123.98C120.306 121.276 120.167 118.693 119.89 116.232C119.612 113.771 119.318 111.76 119.006 110.2C118.936 109.923 118.902 109.541 118.902 109.056C118.902 107.635 119.387 106.439 120.358 105.468C121.328 104.463 122.438 103.96 123.686 103.96C124.864 103.96 125.939 103.925 126.91 103.856C127.915 103.752 128.556 103.683 128.834 103.648C130.012 103.509 130.775 103.44 131.122 103.44ZM108.97 74.268C108.346 74.268 107.6 75.3253 106.734 77.44C105.902 79.5547 105.07 82.3627 104.238 85.864C103.406 89.3653 102.695 93.092 102.106 97.044C104.74 93.924 106.716 90.544 108.034 86.904C109.386 83.2293 110.062 79.9013 110.062 76.92C110.062 76.0533 109.958 75.3947 109.75 74.944C109.542 74.4933 109.282 74.268 108.97 74.268ZM125.87 74.268C125.176 74.268 124.327 75.4813 123.322 77.908C122.351 80.3347 121.38 83.5067 120.41 87.424C119.474 91.3413 118.694 95.3973 118.07 99.592C120.046 98.032 121.71 95.952 123.062 93.352C124.448 90.752 125.471 88.0307 126.13 85.188C126.823 82.3453 127.17 79.7627 127.17 77.44C127.17 75.3253 126.736 74.268 125.87 74.268ZM151.821 106.404C152.271 106.404 152.618 106.612 152.861 107.028C153.138 107.444 153.277 108.016 153.277 108.744C153.277 110.131 152.947 111.205 152.289 111.968C151.006 113.528 149.186 114.967 146.829 116.284C144.506 117.601 142.01 118.26 139.341 118.26C135.701 118.26 132.875 117.272 130.865 115.296C128.854 113.32 127.849 110.616 127.849 107.184C127.849 104.792 128.351 102.573 129.357 100.528C130.362 98.448 131.749 96.8013 133.517 95.588C135.319 94.3747 137.347 93.768 139.601 93.768C141.611 93.768 143.223 94.3747 144.437 95.588C145.65 96.7667 146.257 98.3787 146.257 100.424C146.257 102.816 145.39 104.879 143.657 106.612C141.958 108.311 139.063 109.663 134.973 110.668C135.839 112.263 137.486 113.06 139.913 113.06C141.473 113.06 143.241 112.523 145.217 111.448C147.227 110.339 148.961 108.9 150.417 107.132C150.833 106.647 151.301 106.404 151.821 106.404ZM138.717 98.864C137.434 98.864 136.342 99.6093 135.441 101.1C134.574 102.591 134.141 104.393 134.141 106.508V106.612C136.186 106.127 137.798 105.399 138.977 104.428C140.155 103.457 140.745 102.331 140.745 101.048C140.745 100.389 140.554 99.8693 140.173 99.488C139.826 99.072 139.341 98.864 138.717 98.864ZM167.659 107.964C168.11 107.964 168.456 108.172 168.699 108.588C168.976 109.004 169.115 109.576 169.115 110.304C169.115 111.552 168.82 112.627 168.231 113.528C167.26 115.019 165.978 116.18 164.383 117.012C162.823 117.844 160.951 118.26 158.767 118.26C155.439 118.26 152.856 117.272 151.019 115.296C149.182 113.285 148.263 110.581 148.263 107.184C148.263 104.792 148.766 102.573 149.771 100.528C150.776 98.448 152.163 96.8013 153.931 95.588C155.734 94.3747 157.762 93.768 160.015 93.768C162.026 93.768 163.638 94.3747 164.851 95.588C166.064 96.7667 166.671 98.3787 166.671 100.424C166.671 102.816 165.804 104.879 164.071 106.612C162.372 108.311 159.46 109.663 155.335 110.668C156.167 112.263 157.571 113.06 159.547 113.06C160.968 113.06 162.13 112.731 163.031 112.072C163.967 111.413 165.042 110.304 166.255 108.744C166.671 108.224 167.139 107.964 167.659 107.964ZM159.131 98.864C157.848 98.864 156.756 99.6093 155.855 101.1C154.988 102.591 154.555 104.393 154.555 106.508V106.612C156.6 106.127 158.212 105.399 159.391 104.428C160.57 103.457 161.159 102.331 161.159 101.048C161.159 100.389 160.968 99.8693 160.587 99.488C160.24 99.072 159.755 98.864 159.131 98.864Z" fill="#D3AD7F"/>
</svg>
